<svg xmlns="http://www.w3.org/2000/svg" viewBox="0 0 50.493 52.184"><defs><style>.a{fill:#fff;}</style></defs><g transform="translate(-8.295)"><g transform="translate(8.295 25.073)"><path class="a" d="M25.186,259.36l-.031-.008a5.992,5.992,0,0,0,1.535-4.01v-4.519A4.83,4.83,0,0,0,21.866,246H15.675a1.019,1.019,0,0,0-1.019,1.019v8.324a5.993,5.993,0,0,0,1.535,4.01l-.031.008A8.677,8.677,0,0,0,8.3,267.988v4.1a1.019,1.019,0,0,0,1.019,1.019H32.032a1.019,1.019,0,0,0,1.019-1.019v-4.1A8.678,8.678,0,0,0,25.186,259.36Zm-4.513-.038a3.983,3.983,0,0,1-3.979-3.979V253.52a3.881,3.881,0,0,0,1.866.476h6.091v1.347A3.983,3.983,0,0,1,20.673,259.322Zm1.777,2.038-1.777,1.777L18.9,261.36Zm-5.755-13.322h5.172a2.789,2.789,0,0,1,2.786,2.786v1.134H18.561a1.868,1.868,0,0,1-1.866-1.866Zm-6.361,23.035v-3.085a6.637,6.637,0,0,1,5.741-6.567l3.878,3.878a1.019,1.019,0,0,0,1.441,0l3.878-3.878a6.637,6.637,0,0,1,5.741,6.567v3.085Z" transform="translate(-8.295 -246)"/></g><g transform="translate(30.79 3.818)"><path class="a" d="M251.975,72.832a4.274,4.274,0,0,0,1.27-3.043V65.645a6.925,6.925,0,0,0-2.976-5.685,1.023,1.023,0,0,0,.025-.224V57.313a4.844,4.844,0,0,0,4.232-4.8V42.3a4.843,4.843,0,0,0-4.837-4.837H233.843a4.843,4.843,0,0,0-4.837,4.837V52.513a4.843,4.843,0,0,0,4.837,4.837h11.605l1.388,1.388c-.172-.013-.345-.022-.52-.022a6.937,6.937,0,0,0-6.929,6.929v4.144a4.274,4.274,0,0,0,1.27,3.043,8.65,8.65,0,0,0-5.029,7.846v4.131a1.019,1.019,0,0,0,1.019,1.019h19.337A1.019,1.019,0,0,0,257,84.809V80.678A8.65,8.65,0,0,0,251.975,72.832Zm-5.383-17.222a1.02,1.02,0,0,0-.721-.3H233.843a2.8,2.8,0,0,1-2.8-2.8V42.3a2.8,2.8,0,0,1,2.8-2.8h15.846a2.8,2.8,0,0,1,2.8,2.8v.055h-6.466a1.019,1.019,0,1,0,0,2.038h6.466v8.12a2.8,2.8,0,0,1-2.8,2.8h-.414a1.019,1.019,0,0,0-1.019,1.019v.944Zm-5.165,10.035a4.89,4.89,0,0,1,9.781,0v4.144a2.252,2.252,0,0,1-2.249,2.249h-5.282a2.252,2.252,0,0,1-2.249-2.249Zm13.54,18.144h-17.3V80.678a6.609,6.609,0,0,1,6.6-6.6h4.1a6.609,6.609,0,0,1,6.6,6.6Z" transform="translate(-229.006 -37.462)"/></g><g transform="translate(12.463)"><path class="a" d="M65.881,0H54.026a4.843,4.843,0,0,0-4.837,4.837V15.051a4.844,4.844,0,0,0,4.232,4.8v2.423a1.019,1.019,0,0,0,1.74.721l3.106-3.106h5.3a1.019,1.019,0,1,0,0-2.038H57.845a1.02,1.02,0,0,0-.721.3l-1.665,1.665v-.944A1.019,1.019,0,0,0,54.44,17.85h-.414a2.8,2.8,0,0,1-2.8-2.8V4.837a2.8,2.8,0,0,1,2.8-2.8H65.881a1.019,1.019,0,0,0,0-2.038Z" transform="translate(-49.189)"/></g><g transform="translate(32.127)"><path class="a" d="M243.856.3a1.02,1.02,0,0,0-1.741.721A1.02,1.02,0,1,0,243.856.3Z" transform="translate(-242.115)"/></g><g transform="translate(42.532 8.71)"><path class="a" d="M345.944,85.759a1.018,1.018,0,1,0,.3.721A1.027,1.027,0,0,0,345.944,85.759Z" transform="translate(-344.204 -85.46)"/></g></g></svg>