<svg xmlns="http://www.w3.org/2000/svg" xmlns:xlink="http://www.w3.org/1999/xlink" width="28" height="29" viewBox="0 0 28 29"><defs><path id="rzyqa" d="M1502.968 721.46c4.644 0 8.422 3.777 8.422 8.421 0 4.644-3.778 8.423-8.422 8.423s-8.422-3.779-8.422-8.423 3.778-8.422 8.422-8.422zm15.438 22.733l-6.716-6.986a11.358 11.358 0 0 0 2.673-7.326c0-6.282-5.112-11.394-11.395-11.394-6.283 0-11.394 5.112-11.394 11.394 0 6.283 5.111 11.395 11.394 11.395 2.359 0 4.607-.711 6.528-2.062l6.768 7.039c.283.294.664.456 1.071.456a1.488 1.488 0 0 0 1.071-2.516z"/></defs><g><g transform="translate(-1491 -718)"><use fill="#bbb" xlink:href="#rzyqa"/></g></g></svg>