<svg xmlns="http://www.w3.org/2000/svg" viewBox="0 0 52.021 64.774"><defs><style>.a{fill:#fff;}</style></defs><g transform="translate(-0.499 0)"><path class="a" d="M177.577,166.2h-.42a1.5,1.5,0,0,0-1.5,1.5v3.6a2.431,2.431,0,0,0,2.429,2.428h12.525a2.431,2.431,0,0,0,2.429-2.428v-3.2h.019a3.067,3.067,0,0,0,0-6.133h-.019v-3.2a2.432,2.432,0,0,0-2.429-2.429h-3.2v-.019a3.067,3.067,0,0,0-6.133,0v.019h-3.2a2.432,2.432,0,0,0-2.429,2.429v3.6a1.5,1.5,0,0,0,1.5,1.5h.42a1.169,1.169,0,1,1,0,2.338Zm0-4.236h-.019v-3.2a.532.532,0,0,1,.531-.531h3.572a1.524,1.524,0,0,0,1.522-1.522v-.395a1.169,1.169,0,1,1,2.338,0v.395a1.524,1.524,0,0,0,1.522,1.522h3.572a.531.531,0,0,1,.531.531v3.6a1.5,1.5,0,0,0,1.5,1.5h.42a1.169,1.169,0,0,1,0,2.338h-.421a1.5,1.5,0,0,0-1.5,1.5v3.6a.532.532,0,0,1-.531.531H178.089a.532.532,0,0,1-.531-.531v-3.2h.019a3.067,3.067,0,0,0,0-6.133Zm0,0" transform="translate(-153.001 -133.866)"/><path class="a" d="M232.441,290.99h6.381A1.993,1.993,0,0,0,240.813,289v-7.126a10.546,10.546,0,0,1,2.542-7.011,19.764,19.764,0,0,0,4.947-13.088v-1.846a.949.949,0,0,0-1.9,0v1.846a17.869,17.869,0,0,1-4.472,11.832,12.439,12.439,0,0,0-3.017,8.266V289a.093.093,0,0,1-.093.093h-6.381a.949.949,0,1,0,0,1.9Zm0,0" transform="translate(-201.77 -226.217)"/><path class="a" d="M3.2,44.722H6.929a.018.018,0,0,1,.017.017v3.2a9.658,9.658,0,0,0,9.646,9.646,2.436,2.436,0,0,1,2.433,2.433V62.8A1.978,1.978,0,0,0,21,64.774h5.241a.949.949,0,0,0,0-1.9H21a.078.078,0,0,1-.078-.078V60.02a4.336,4.336,0,0,0-4.331-4.331,7.757,7.757,0,0,1-7.748-7.748v-3.2a1.918,1.918,0,0,0-1.915-1.915H3.2a.8.8,0,0,1-.562-1.358L5.23,38.872a12.259,12.259,0,0,0,3.615-8.726v-2.8A17.908,17.908,0,0,1,30.432,9.832,2.438,2.438,0,0,0,30.661,13l2.525,2.525a1.521,1.521,0,0,0,1.076.446,1.742,1.742,0,0,0,1.356-.725A1.169,1.169,0,1,1,37.271,16.9l-.279.279a1.524,1.524,0,0,0,0,2.153l2.525,2.525a2.427,2.427,0,0,0,3.435,0l.616-.616a17.769,17.769,0,0,1,1.067,6.1v1.94a.949.949,0,1,0,1.9,0v-1.94a19.636,19.636,0,0,0-1.5-7.567l.463-.463a1.5,1.5,0,0,0,0-2.117l-.3-.3a1.169,1.169,0,0,1,1.653-1.653l.3.3a1.5,1.5,0,0,0,2.117,0L51.808,13a2.427,2.427,0,0,0,0-3.435L42.952.712a2.427,2.427,0,0,0-3.435,0L37.258,2.971l-.014-.013a3.067,3.067,0,0,0-4.337,4.337l.014.013-.947.947A19.8,19.8,0,0,0,6.947,27.345v2.8A10.373,10.373,0,0,1,3.888,37.53L1.294,40.124a2.693,2.693,0,0,0,1.9,4.6ZM32,10.909l2.543-2.543a1.5,1.5,0,0,0,0-2.117l-.3-.3A1.169,1.169,0,0,1,35.9,4.3l.3.3a1.5,1.5,0,0,0,2.117,0L40.86,2.053a.53.53,0,0,1,.751,0l8.856,8.856a.53.53,0,0,1,0,.751l-2.259,2.26-.014-.014a3.067,3.067,0,0,0-4.337,4.337l.014.013-.634.634h0L41.61,20.517a.53.53,0,0,1-.751,0l-2.26-2.26.013-.013a3.067,3.067,0,1,0-4.337-4.337l-.013.014L32,11.661a.536.536,0,0,1,0-.751Zm0,0" transform="translate(0 0)"/></g></svg>