<?xml version="1.0" encoding="UTF-8" standalone="no"?>
<svg
   xmlns:dc="http://purl.org/dc/elements/1.1/"
   xmlns:cc="http://creativecommons.org/ns#"
   xmlns:rdf="http://www.w3.org/1999/02/22-rdf-syntax-ns#"
   xmlns:svg="http://www.w3.org/2000/svg"
   xmlns="http://www.w3.org/2000/svg"
   xmlns:sodipodi="http://sodipodi.sourceforge.net/DTD/sodipodi-0.dtd"
   xmlns:inkscape="http://www.inkscape.org/namespaces/inkscape"
   viewBox="0 -26 512 512"
   version="1.1"
   id="svg4048"
   sodipodi:docname="profiel-message.svg"
   inkscape:version="0.92.2 2405546, 2018-03-11">
  <metadata
     id="metadata4054">
    <rdf:RDF>
      <cc:Work
         rdf:about="">
        <dc:format>image/svg+xml</dc:format>
        <dc:type
           rdf:resource="http://purl.org/dc/dcmitype/StillImage" />
        <dc:title></dc:title>
      </cc:Work>
    </rdf:RDF>
  </metadata>
  <defs
     id="defs4052" />
  <sodipodi:namedview
     pagecolor="#ffffff"
     bordercolor="#666666"
     borderopacity="1"
     objecttolerance="10"
     gridtolerance="10"
     guidetolerance="10"
     inkscape:pageopacity="0"
     inkscape:pageshadow="2"
     inkscape:window-width="1920"
     inkscape:window-height="1016"
     id="namedview4050"
     showgrid="false"
     inkscape:zoom="0.4609375"
     inkscape:cx="256"
     inkscape:cy="256"
     inkscape:window-x="0"
     inkscape:window-y="30"
     inkscape:window-maximized="1"
     inkscape:current-layer="svg4048" />
  <path
     d="m256 100c-5.519531 0-10 4.480469-10 10s4.480469 10 10 10 10-4.480469 10-10-4.480469-10-10-10zm0 0"
     id="path4036" />
  <path
     d="m90 280c5.519531 0 10-4.480469 10-10s-4.480469-10-10-10-10 4.480469-10 10 4.480469 10 10 10zm0 0"
     id="path4038" />
  <path
     d="m336 0c-90.027344 0-163.917969 62.070312-169.632812 140.253906-85.738282 4.300782-166.367188 66.125-166.367188 149.746094 0 34.945312 13.828125 68.804688 39 95.632812 4.980469 20.53125-1.066406 42.292969-16.070312 57.296876-2.859376 2.859374-3.714844 7.160156-2.167969 10.898437 1.546875 3.734375 5.191406 6.171875 9.238281 6.171875 28.519531 0 56.003906-11.183594 76.425781-30.890625 19.894531 6.78125 45.851563 10.890625 69.574219 10.890625 90.015625 0 163.898438-62.054688 169.628906-140.222656 20.9375-.929688 42.714844-4.796875 59.945313-10.667969 20.421875 19.707031 47.90625 30.890625 76.425781 30.890625 4.046875 0 7.691406-2.4375 9.238281-6.171875 1.546875-3.738281.691407-8.039063-2.167969-10.898437-15.003906-15.003907-21.050781-36.765626-16.070312-57.296876 25.171875-26.828124 39-60.6875 39-95.632812 0-86.886719-86.839844-150-176-150zm-160 420c-23.601562 0-50.496094-4.632812-68.511719-11.800781-3.859375-1.539063-8.269531-.527344-11.078125 2.539062-12.074218 13.199219-27.773437 22.402344-44.878906 26.632813 9.425781-18.058594 11.832031-39.347656 6.097656-59.519532-.453125-1.589843-1.292968-3.042968-2.445312-4.226562-22.6875-23.367188-35.183594-53.066406-35.183594-83.625 0-70.46875 71.4375-130 156-130 79.851562 0 150 55.527344 150 130 0 71.683594-67.289062 130-150 130zm280.816406-186.375c-1.152344 1.1875-1.992187 2.640625-2.445312 4.226562-5.734375 20.171876-3.328125 41.460938 6.097656 59.519532-17.105469-4.226563-32.804688-13.433594-44.878906-26.632813-2.808594-3.0625-7.21875-4.078125-11.078125-2.539062-15.613281 6.210937-37.886719 10.511719-58.914063 11.550781-2.921875-37.816406-21.785156-73.359375-54.035156-99.75h130.4375c5.523438 0 10-4.476562 10-10s-4.476562-10-10-10h-161.160156c-22.699219-11.554688-48.1875-18.292969-74.421875-19.707031 5.746093-67.164063 70.640625-120.292969 149.582031-120.292969 84.5625 0 156 59.53125 156 130 0 30.558594-12.496094 60.257812-35.183594 83.625zm0 0"
     id="path4040" />
  <path
     d="m256 260h-126c-5.523438 0-10 4.476562-10 10s4.476562 10 10 10h126c5.523438 0 10-4.476562 10-10s-4.476562-10-10-10zm0 0"
     id="path4042" />
  <path
     d="m256 320h-166c-5.523438 0-10 4.476562-10 10s4.476562 10 10 10h166c5.523438 0 10-4.476562 10-10s-4.476562-10-10-10zm0 0"
     id="path4044" />
  <path
     d="m422 100h-126c-5.523438 0-10 4.476562-10 10s4.476562 10 10 10h126c5.523438 0 10-4.476562 10-10s-4.476562-10-10-10zm0 0"
     id="path4046" />
  <path
     style="fill:#ffffff;stroke-width:2.16949153"
     d="m 25.092703,482.19932 c -5.661433,-3.96542 -5.378534,-7.59459 1.201593,-15.41463 9.12766,-10.84761 14.597363,-25.85615 14.734475,-40.43055 0.11687,-12.42184 -0.464083,-14.01002 -9.139393,-24.9851 C 6.0753651,368.71185 -4.387043,324.87454 4.5680141,286.89297 14.032953,246.74883 46.051695,209.33185 89.193628,187.99982 107.66783,178.86504 135.69598,170.35828 154.33828,168.22793 l 13.10437,-1.49751 2.37195,-15.0637 c 4.85993,-30.8643 27.45605,-66.657631 55.28854,-87.579697 65.23429,-49.037488 155.28288,-48.993752 224.5071,0.109038 45.94888,32.592896 69.1482,87.126049 58.52318,137.566649 -3.9957,18.96898 -17.27451,47.14698 -28.2389,59.92368 -13.69066,15.95364 -12.51903,37.76054 3.30171,61.45228 5.17905,7.75569 7.93344,14.02097 7.10877,16.17002 -4.79169,12.48694 -51.54632,1.31925 -75.62442,-18.06345 -6.60085,-5.31364 -9.86281,-6.58675 -14.10169,-5.50371 -14.89797,3.80639 -34.39838,7.44441 -40.22635,7.50466 -13.46553,0.13928 -15.66297,1.80653 -17.14944,13.01211 -7.81032,58.87707 -62.21789,110.84932 -130.95286,125.09132 -21.85427,4.52823 -68.27156,2.97819 -91.17879,-3.0448 -9.2997,-2.44516 -16.33964,-3.32528 -17.07545,-2.13471 -2.61199,4.2263 -27.492765,18.84251 -38.036583,22.34461 -16.796663,5.57896 -35.725554,7.28561 -40.866714,3.6846 z m 45.41015,-24.98577 c 5.247076,-2.46758 14.382464,-8.78718 20.300859,-14.04355 6.946593,-6.16956 11.982968,-9.08803 14.209028,-8.23381 31.3017,12.01158 85.30362,14.77825 116.05667,5.94588 75.0569,-21.55654 118.035,-85.45043 102.32055,-152.116 -15.43172,-65.46617 -90.23672,-111.4599 -166.62749,-102.45063 -62.270436,7.34395 -114.882855,45.29718 -131.888445,95.14087 -6.813211,19.96965 -6.922027,47.62976 -0.271475,69.00667 4.460117,14.33615 14.862709,32.35367 27.650547,47.89131 9.80085,11.90834 9.66881,36.76631 -0.33375,62.83255 -1.634558,4.2596 3.337609,3.19651 18.583506,-3.97329 z M 457.41972,314.0339 c -2.62947,-6.41556 -3.77904,-15.15987 -3.77904,-28.74576 v -19.52543 l 11.43437,-14.8178 c 20.27461,-26.27387 27.26851,-45.68216 27.10463,-75.2161 C 491.98965,141.48287 479.36462,115.09189 450.32543,88.237982 432.68198,71.922239 405.77545,57.300098 380.96271,50.54338 361.26425,45.179321 311.72556,45.17717 292.01356,50.539518 237.60362,65.340911 193.85998,109.4074 186.79243,156.5372 l -1.4885,9.92603 16.78475,2.49642 c 9.23162,1.37303 25.18706,5.58402 35.45652,9.35775 l 18.67175,6.86134 84.61017,1.24114 c 46.53559,0.68262 85.83051,2.03096 87.32203,2.99629 3.44082,2.22694 3.49816,8.52297 0.10848,11.91264 -1.91217,1.91216 -20.34502,2.60339 -69.42373,2.60339 -36.75119,0 -66.82034,0.77301 -66.82034,1.71779 0,0.94478 4.46156,6.07021 9.91458,11.38983 20.78605,20.27754 37.75091,52.63316 41.33853,78.84142 l 1.45009,10.59311 14.50919,-1.21639 c 7.98004,-0.66903 22.87036,-3.40936 33.0896,-6.08961 l 18.58046,-4.8732 10.17837,8.95937 c 10.83988,9.54164 29.7844,19.99972 36.22894,19.99972 3.72934,0 3.7343,-0.39316 0.11629,-9.22034 z"
     id="path4056"
     inkscape:connector-curvature="0"
     transform="translate(0,-26)" />
  <path
     style="fill:#ffffff;stroke-width:2.16949153"
     d="m 55.538983,459.02269 c 0,-0.50024 1.561253,-7.00371 3.469451,-14.45211 2.43833,-9.51774 3.036939,-17.58132 2.014162,-27.13188 C 59.740401,405.46575 58.321525,402.29717 49.093367,390.79866 8.4989605,340.21707 12.833004,277.18098 59.997713,232.20143 c 20.094859,-19.16386 44.133037,-32.00289 76.074957,-40.63241 20.89788,-5.64582 60.8457,-5.06044 83.14016,1.21831 50.97736,14.35668 90.68517,51.23852 102.0212,94.76045 6.88199,26.42182 3.13374,56.60512 -10.20462,82.17381 -10.78994,20.68353 -38.01663,46.51432 -60.47249,57.37208 -28.3292,13.69761 -41.59021,16.5445 -76.78065,16.48332 -28.54771,-0.0497 -49.15722,-3.28665 -68.71937,-10.79335 -2.14224,-0.82204 -7.206187,1.98435 -13.660537,7.57055 -12.990672,11.24335 -35.85738,23.14848 -35.85738,18.6685 z M 263.37627,364.04068 c 3.35603,-3.35603 3.35603,-13.13211 0,-16.48814 -3.41549,-3.4155 -173.43088,-3.75365 -179.776522,-0.35756 -4.756005,2.54533 -5.718189,12.72048 -1.592968,16.8457 3.740952,3.74095 177.62855,3.74095 181.36949,0 z m -3.90508,-58.767 c 6.87815,-3.46227 8.64831,-14.14009 3.0257,-18.25144 -2.96129,-2.16534 -19.09927,-2.81885 -69.60985,-2.81885 -62.86218,0 -65.94571,0.19088 -70.09382,4.33898 -2.38644,2.38644 -4.33898,5.6168 -4.33898,7.17857 0,3.68884 4.54201,9.36312 8.67796,10.84127 1.78983,0.63967 31.07797,1.22572 65.08475,1.30233 45.60434,0.10275 63.25385,-0.57718 67.25424,-2.59086 z M 98.494915,303.29492 c 4.373035,-4.37304 2.991475,-12.22875 -2.820339,-16.03679 -5.024262,-3.29203 -5.823195,-3.29203 -10.847457,0 -9.606344,6.29431 -6.014072,18.64018 5.423728,18.64018 3.102373,0 6.812204,-1.17153 8.244068,-2.60339 z"
     id="path4058"
     inkscape:connector-curvature="0"
     transform="translate(0,-26)" />
  <path
     style="fill:#ffffff;stroke-width:2.16949153"
     d="m 125.44544,302.52105 c -5.67716,-3.97644 -6.12611,-8.02537 -1.41251,-12.73897 2.9489,-2.9489 12.26373,-3.4092 68.98983,-3.4092 48.1145,0 66.27399,0.69336 68.18402,2.60339 3.98562,3.98562 3.09773,12.16583 -1.59297,14.67621 -2.61443,1.3992 -27.78569,2.24583 -66.77151,2.24583 -53.12415,0 -63.3034,-0.51009 -67.39686,-3.37726 z"
     id="path4060"
     inkscape:connector-curvature="0"
     transform="translate(0,-26)" />
  <path
     style="fill:#ffffff;stroke-width:2.16949153"
     d="m 84.200222,361.89514 c -3.35379,-3.35379 -3.364569,-8.83249 -0.02395,-12.17311 3.078634,-3.07863 172.289138,-3.75477 177.095758,-0.70764 1.63898,1.03902 2.57622,4.53935 2.16949,8.10237 l -0.7161,6.27307 -87.94893,0.56632 c -66.59551,0.42883 -88.586827,-0.0716 -90.576268,-2.06101 z"
     id="path4062"
     inkscape:connector-curvature="0"
     transform="translate(0,-26)" />
  <path
     style="fill:#ffffff;stroke-width:2.16949153"
     d="m 83.019209,302.28249 c -3.047202,-3.04721 -1.264444,-11.5153 2.892655,-13.74012 8.272316,-4.42721 15.228056,2.56104 11.700093,11.75477 -1.308198,3.40911 -11.748571,4.82952 -14.592748,1.98535 z"
     id="path4064"
     inkscape:connector-curvature="0"
     transform="translate(0,-26)" />
  <path
     style="fill:#ffffff;stroke-width:2.16949153"
     d="M 249.86344,141.94673 C 243.61501,135.6983 247.31938,128 256.57452,128 c 6.94879,0 10.09312,6.73029 5.92471,12.68153 -3.87845,5.53726 -7.9555,5.94549 -12.63579,1.2652 z"
     id="path4066"
     inkscape:connector-curvature="0"
     transform="translate(0,-26)" />
  <path
     style="fill:#ffffff;stroke-width:2.16949153"
     d="m 289.94317,142.22111 c -1.43092,-1.72415 -2.28266,-5.38517 -1.89276,-8.13559 l 0.70891,-5.00077 68.07897,-0.57368 c 48.42753,-0.40808 68.93683,0.13828 71.05085,1.89276 4.28397,3.55538 3.6537,10.09556 -1.22448,12.70628 -2.62465,1.40467 -28.52714,2.24582 -69.15809,2.24582 -53.99728,0 -65.40084,-0.5291 -67.5634,-3.13482 z"
     id="path4068"
     inkscape:connector-curvature="0"
     transform="translate(0,-26)" />
</svg>
